<svg fill="none" height="14" viewBox="0 0 14 14" width="14" xmlns="http://www.w3.org/2000/svg"><path d="m11.8567 2.69967c-.88-.405-1.82-.69834-2.80003-.86634-.01333 0-.02667.00667-.03333.02-.12.21334-.25334.49334-.34667.71334-1.05333-.15667-2.1-.15667-3.13333 0-.09334-.22667-.23334-.5-.35334-.71334-.00666-.01333-.02-.02-.03333-.02-.98.168-1.91333.46134-2.8.86634-.00667 0-.01333.00666-.02.01366-1.790003 2.68-2.2833367 5.29334-2.040003 7.87337 0 .0133.006666.0266.02.0333 1.186673.8733 2.333333 1.4067 3.460003 1.7667.01333.0066.02667 0 .03333-.0134.26667-.36.50667-.74.71334-1.14.01333-.0266 0-.0533-.02667-.0633-.37333-.1433-.72667-.3133-1.07333-.5033-.02667-.0134-.02667-.0534-.00667-.0734.07333-.0533.14667-.11.21667-.1666.01333-.0134.03-.0134.04333-.0067 2.3 1.05 4.77333 1.05 7.04663 0 .0134-.0067.03-.0067.0434.0067.07.0633.1433.1133.2166.1733.0267.02.0267.06-.0066.0733-.34.1967-.7.36-1.07336.5034-.02667.01-.03334.0433-.02667.0633.21333.4.45333.78.71333 1.14.0133.0067.0267.0133.04.0067 1.1333-.36 2.28-.8934 3.4667-1.7667.0133-.0067.02-.02.02-.0333.2933-2.98003-.4934-5.57337-2.24-7.87337-.0067-.007-.0134-.01366-.02-.01366zm-7.01336 6.287c-.69334 0-1.26667-.64-1.26667-1.42667s.56-1.42667 1.26667-1.42667c.71333 0 1.28.64667 1.26666 1.42667 0 .78667-.56 1.42667-1.26666 1.42667zm4.73333 0c-.69333 0-1.26667-.64-1.26667-1.42667s.56-1.42667 1.26667-1.42667c.71333 0 1.28003.64667 1.26663 1.42667 0 .78667-.5533 1.42667-1.26663 1.42667z" fill="#a1a1a1"/></svg>