<svg fill="none" height="14" viewBox="0 0 14 14" width="14" xmlns="http://www.w3.org/2000/svg"><path d="m11.9557 1.16797h-9.91664c-.23206 0-.45462.09219-.61872.25628-.16409.16409-.25628.38665-.25628.61872v9.91663c0 .2321.09219.4547.25628.6188.1641.164.38666.2562.61872.2562h9.91664c.2321 0 .4547-.0922.6187-.2562.1641-.1641.2563-.3867.2563-.6188v-9.91663c0-.23207-.0922-.45463-.2563-.61872-.164-.16409-.3866-.25628-.6187-.25628zm-7.29164 9.91663h-1.75v-5.24996h1.75zm-.875-6.2708c-.20056-.00573-.39498-.07044-.55898-.18604-.16399-.11559-.29028-.27696-.3631-.46392-.07281-.18697-.08891-.39124-.04629-.5873.04263-.19607.14208-.37522.28594-.51509.14386-.13986.32574-.23423.52293-.27131.19718-.03708.40093-.01524.58576.06281.18484.07805.34259.20884.45352.37602.11093.16719.17014.36336.17022.564-.0046.27437-.11763.53576-.31438.72705-.19675.19128-.46123.2969-.73562.29378zm7.29164 6.2708h-1.74997v-2.76496c0-.82834-.35-1.12584-.805-1.12584-.1334.00888-.26374.04403-.38352.10343-.11977.0594-.22664.14188-.31445.2427s-.15483.21799-.19723.34479c-.04239.1268-.05932.26072-.0498.39408-.0029.02715-.0029.05452 0 .08167v2.72413h-1.75v-5.24996h1.69167v.75833c.17064-.25958.40508-.471.68086-.614.27578-.14299.58365-.21278.89414-.20267.9042 0 1.96.50167 1.96 2.135z" fill="#a1a1a1"/></svg>