<svg fill="none" height="14" viewBox="0 0 14 14" width="14" xmlns="http://www.w3.org/2000/svg"><g stroke="#a1a1a1" stroke-linecap="round" stroke-linejoin="round"><path d="m1.45797 9.91764c-.4075-1.92309-.4075-3.91024 0-5.83333.05354-.19529.157-.37329.30019-.51648s.32118-.24664.51648-.30019c3.12868-.51831 6.32132-.51831 9.44996 0 .1953.05355.3733.157.5165.30019s.2467.32119.3002.51648c.4075 1.92309.4075 3.91024 0 5.83333-.0535.19526-.157.37326-.3002.51646s-.3212.2467-.5165.3002c-3.12863.5184-6.32129.5184-9.44996 0-.1953-.0535-.37329-.157-.51648-.3002s-.24665-.3212-.30019-.51646z"/><path d="m5.83594 8.75 2.91666-1.75-2.91666-1.75z"/></g></svg>