<svg width="816" height="40" viewBox="0 0 816 40" fill="none" xmlns="http://www.w3.org/2000/svg">
<g clip-path="url(#clip0_2403_1023)">
<path d="M816 0H0V40H816V0Z" fill="#241128"/>
<path d="M0 8.1001H816" stroke="white" stroke-width="0.5" stroke-miterlimit="10" stroke-dasharray="0.5 0.5"/>
<path d="M0 16H816" stroke="white" stroke-width="0.5" stroke-miterlimit="10" stroke-dasharray="0.5 0.5"/>
<path d="M0 24H816" stroke="white" stroke-width="0.5" stroke-miterlimit="10" stroke-dasharray="0.5 0.5"/>
<path d="M0 31.8999H816" stroke="white" stroke-width="0.5" stroke-miterlimit="10" stroke-dasharray="0.5 0.5"/>
<path d="M365 3.2002H450.1C459.32 3.2002 466.8 10.6802 466.8 19.9002C466.8 29.1202 459.32 36.6002 450.1 36.6002H365C355.78 36.6002 348.3 29.1202 348.3 19.9002C348.3 10.6802 355.78 3.2002 365 3.2002Z" fill="#241128"/>
<path fill-rule="evenodd" clip-rule="evenodd" d="M371.2 14.3999L369.3 21.1999H372.8L374.7 14.3999H371.2Z" fill="#FCFBDE"/>
<path fill-rule="evenodd" clip-rule="evenodd" d="M370.9 3.5999C365.3 2.4999 362 4.2999 359.8 7.9999C358.1 10.9999 357 15.7999 357 20.4999C357 25.1999 357.4 26.5999 358.2 29.1999H370.4L371.3 26.0999H365.8C365.1 26.0999 364.6 25.7999 364.3 25.2999C364 24.7999 363.9 24.1999 364.1 23.4999L364.6 21.7999L367.5 11.6999C367.7 11.0999 368 10.5999 368.5 10.1999C369 9.7999 369.6 9.4999 370.2 9.4999H378.2C378.9 9.4999 379.4 9.7999 379.7 10.2999C380 10.7999 380.1 11.4999 379.9 12.0999C379.5 13.5999 379.1 15.0999 378.6 16.5999C378.2 17.8999 377.9 19.1999 377.5 20.5999L385.2 17.1999C385.3 17.1999 385.5 17.0999 385.6 17.1999C385.8 17.1999 385.9 17.2999 386 17.3999C386.2 17.5999 386.3 17.8999 386.2 18.1999L385.3 21.3999C385.3 21.6999 385.1 21.7999 384.9 21.8999L376 25.6999C376 25.6999 375.4 27.7999 375.2 28.5999C374.9 29.5999 374.7 30.5999 374.4 31.5999V31.6999C374.2 32.1999 373.8 32.6999 373.3 33.0999C372.8 33.4999 372.3 33.6999 371.7 33.6999H360.7C363 36.6999 367.2 37.9999 371.1 36.7999C380.6 33.8999 392.3 27.4999 392.3 20.1999C392.3 12.8999 380.3 5.1999 371 3.2999L370.9 3.5999Z" fill="#FCFBDE"/>
<path d="M433.5 15.9H432.1L433.7 10.2C433.7 9.9 433.7 9.6 433.6 9.4C433.4 9.1 433.2 9 432.9 9H432.1C431.5 9 431.2 9.2 430.7 9.5C430.3 9.8 430 10.2 429.9 10.7C429.4 12.4 428.9 14.1 428.4 15.9H427.3C427 15.9 426.8 16.1 426.7 16.4L426.2 18.8C426.2 19.2 426.4 19.5 426.8 19.5H427.4C426.6 22.3 425.8 25.1 425 27.9C424.8 28.7 425 29.5 425.8 29.9C426.2 30 426.6 30 426.9 30C427.4 30 428.1 30 428.3 29.3C428.8 28 431 19.7 431 19.7H432.7C433 19.7 433.2 19.5 433.3 19.3C433.5 18.6 433.9 17.3 434.1 16.6C434.3 16.1 433.9 16 433.6 16L433.5 15.9Z" fill="#FCFBDE"/>
<path d="M425.1 16.8998L422.6 25.5998L421.8 28.4998C421.8 28.6998 421.6 29.1998 421.5 29.2998C421.5 29.3998 421.3 29.4998 421.2 29.5998C421.1 29.5998 420.9 29.6998 420.8 29.7998H419.6C419.4 29.7998 419.2 29.7998 419 29.5998C418.8 29.5998 418.7 29.3998 418.5 29.2998C418.4 29.1998 418.3 28.9998 418.2 28.7998V27.7998L421.1 17.5998C421.4 16.6998 422 15.8998 423.3 15.7998C423.9 15.7998 425.2 15.7998 425 16.7998L425.1 16.8998Z" fill="#FCFBDE"/>
<path d="M423.3 11.3001C423.1 11.5001 422.8 11.9001 422.7 12.3001C422.6 12.7001 422.5 13.2001 422.7 13.5001C422.7 13.9001 423.2 14.2001 423.6 14.2001C424.5 14.2001 425.8 14.0001 426 13.3001C426.2 12.7001 425.3 11.6001 424.5 11.2001C424 10.9001 423.7 11.0001 423.4 11.2001L423.3 11.3001Z" fill="#FCFBDE"/>
<path d="M422.7 24.1C422.6 24 422.4 23.9 422.2 24C422 24 417.1 25.8 417.1 25.8C417.5 24.5 417.9 23.2 418.2 21.9C418.6 20.6 419 19.3 419.4 18C419.6 17.5 419.4 17 419.2 16.6C419 16.2 418.6 16 418 16H410.8C410.3 16 409.9 16.2 409.4 16.5C409 16.8 408.7 17.2 408.6 17.7L405.6 27.9C405.5 28.4 405.6 28.9 405.8 29.3C406.1 29.7 406.5 29.9 407 29.9H412.2L411.3 33.1H404.7C404.5 33.1 404.4 33.1 404.2 33.2C404 33.2 404 33.5 404 33.6L403.6 34.8C403.4 35.4 403.6 35.8 403.8 36.2C404.1 36.6 404.5 36.8 405.1 36.8H412.1C412.6 36.8 413 36.6 413.4 36.3C413.8 36 414.1 35.6 414.3 35.2V35.1C414.6 34.2 415.8 29.8 415.8 29.8L421.7 27.8C421.9 27.8 421.9 27.7 422 27.5C422.2 26.8 422.8 24.7 422.8 24.7C422.8 24.5 422.8 24.4 422.7 24.2V24.1ZM413.4 26H409.8L411.7 19.6H415.3L413.4 26Z" fill="#FCFBDE"/>
<path d="M454.8 19.7H451.2C451.2 19.7 449.1 26.8 448.4 29.2C448.4 29.4 448.3 29.6 448.1 29.7C447.8 29.9 447.1 29.9 446.6 29.9C446.1 29.9 445.7 29.7 445.4 29.3C445.2 28.9 445.1 28.4 445.3 27.9L448.3 17.7C448.5 17.2 448.7 16.8 449.1 16.5C449.5 16.1 450 16 450.5 16H457.7C458.2 16 458.6 16.2 458.8 16.5C459.1 16.9 459.2 17.3 459.1 17.8V18.1L458.3 20.8C458.2 21.3 457.9 21.7 457.5 22C457.1 22.3 456.6 22.5 456.1 22.5H455.3C455 22.5 454.8 22.4 454.6 22.1C454.4 21.9 454.4 21.6 454.6 21.3L455.1 19.7H454.8Z" fill="#FCFBDE"/>
<path d="M449 24.2999C448.9 24.1999 448.7 24.0999 448.5 24.2999L443.4 25.7999L445.3 19.3999L445.7 17.8999C445.8 17.3999 445.7 16.8999 445.5 16.4999C445.2 16.0999 444.8 15.8999 444.3 15.8999H437.1C436.6 15.8999 436.2 16.0999 435.8 16.3999C435.4 16.6999 435.1 17.0999 435 17.5999C434.4 19.2999 433.9 20.9999 433.4 22.6999C432.9 24.3999 432.4 26.0999 431.9 27.7999C431.7 28.2999 431.8 28.7999 432 29.1999C432.3 29.5999 432.7 29.7999 433.4 29.7999H433.5C434.2 29.7999 434.9 29.5999 435.8 29.1999L439.1 27.3999V27.7999C438.8 28.2999 438.9 28.7999 439.1 29.1999C439.4 29.5999 439.8 29.7999 440.5 29.7999C441.3 29.7999 441.9 29.6999 442.3 29.5999C443.8 29.0999 447.9 27.8999 447.9 27.8999C448 27.8999 448.1 27.6999 448.2 27.5999L449 24.7999C449 24.5999 449 24.3999 448.9 24.2999H449ZM440.4 23.3999L436.2 25.5999L438 19.5999H441.6L440.5 23.2999L440.4 23.3999Z" fill="#FCFBDE"/>
<path d="M170.09 21.6201H182.94C183.83 21.6201 184.55 22.3401 184.55 23.2301V25.7201C184.55 27.9801 182.72 29.8101 180.46 29.8101H172.58C170.32 29.8101 168.49 27.9801 168.49 25.7201V23.2301C168.49 22.3401 169.21 21.6201 170.1 21.6201H170.09Z" fill="#241128" stroke="#F19FFE" stroke-width="0.5" stroke-miterlimit="10"/>
<path d="M180.46 18.9502H172.57C170.311 18.9502 168.48 20.7814 168.48 23.0402V23.0502C168.48 25.309 170.311 27.1402 172.57 27.1402H180.46C182.719 27.1402 184.55 25.309 184.55 23.0502V23.0402C184.55 20.7814 182.719 18.9502 180.46 18.9502Z" fill="#F19FFE" stroke="#F19FFE" stroke-width="0.5" stroke-miterlimit="10"/>
<path d="M174.04 21.2402L172.13 23.5102L174.32 25.2102" stroke="#1C0D1F" stroke-width="0.5" stroke-miterlimit="10"/>
<path d="M179.29 21.2402L181.2 23.5102L179 25.2102" stroke="#1C0D1F" stroke-width="0.5" stroke-miterlimit="10"/>
<path d="M177.37 20.8901L175.96 25.3501" stroke="#1C0D1F" stroke-width="0.5" stroke-miterlimit="10"/>
<path d="M75.5598 15.1001H81.8598C82.2898 15.1001 82.6498 15.4501 82.6498 15.8901V17.1101C82.6498 18.2201 81.7498 19.1201 80.6398 19.1201H76.7798C75.6698 19.1201 74.7698 18.2201 74.7698 17.1101V15.8901C74.7698 15.4601 75.1198 15.1001 75.5598 15.1001Z" fill="#241128" stroke="#FCF7EF" stroke-width="0.5" stroke-miterlimit="10"/>
<path d="M80.6498 13.2798H76.7898C75.6797 13.2798 74.7798 14.1797 74.7798 15.2898C74.7798 16.3999 75.6797 17.2998 76.7898 17.2998H80.6498C81.7599 17.2998 82.6598 16.3999 82.6598 15.2898C82.6598 14.1797 81.7599 13.2798 80.6498 13.2798Z" fill="#241128" stroke="#FCF7EF" stroke-width="0.5" stroke-miterlimit="10"/>
<path d="M233.4 14.98H239.7C240.13 14.98 240.49 15.33 240.49 15.77V16.99C240.49 18.1 239.59 19 238.48 19H234.62C233.51 19 232.61 18.1 232.61 16.99V15.77C232.61 15.34 232.96 14.98 233.4 14.98Z" fill="#241128" stroke="#FCF7EF" stroke-width="0.5" stroke-miterlimit="10"/>
<path d="M238.49 13.1602H234.63C233.52 13.1602 232.62 14.0601 232.62 15.1702C232.62 16.2802 233.52 17.1802 234.63 17.1802H238.49C239.6 17.1802 240.5 16.2802 240.5 15.1702C240.5 14.0601 239.6 13.1602 238.49 13.1602Z" fill="#241128" stroke="#FCF7EF" stroke-width="0.5" stroke-miterlimit="10"/>
<path d="M272.56 30.2002H278.86C279.29 30.2002 279.65 30.5502 279.65 30.9902V32.2102C279.65 33.3202 278.75 34.2202 277.64 34.2202H273.78C272.67 34.2202 271.77 33.3202 271.77 32.2102V30.9902C271.77 30.5602 272.12 30.2002 272.56 30.2002Z" fill="#241128" stroke="#FCF7EF" stroke-width="0.5" stroke-miterlimit="10"/>
<path d="M277.64 28.3901H273.78C272.67 28.3901 271.77 29.29 271.77 30.4001C271.77 31.5102 272.67 32.4101 273.78 32.4101H277.64C278.75 32.4101 279.65 31.5102 279.65 30.4001C279.65 29.29 278.75 28.3901 277.64 28.3901Z" fill="#241128" stroke="#FCF7EF" stroke-width="0.5" stroke-miterlimit="10"/>
<path d="M502.63 22.3701H508.93C509.36 22.3701 509.72 22.7201 509.72 23.1601V24.3801C509.72 25.4901 508.82 26.3901 507.71 26.3901H503.85C502.74 26.3901 501.84 25.4901 501.84 24.3801V23.1601C501.84 22.7301 502.19 22.3701 502.63 22.3701Z" fill="#241128" stroke="#FCF7EF" stroke-width="0.5" stroke-miterlimit="10"/>
<path d="M507.71 20.5498H503.85C502.74 20.5498 501.84 21.4497 501.84 22.5598C501.84 23.6699 502.74 24.5698 503.85 24.5698H507.71C508.82 24.5698 509.72 23.6699 509.72 22.5598C509.72 21.4497 508.82 20.5498 507.71 20.5498Z" fill="#241128" stroke="#FCF7EF" stroke-width="0.5" stroke-miterlimit="10"/>
<path d="M616.58 5.97021H622.88C623.31 5.97021 623.67 6.32022 623.67 6.76022V7.98022C623.67 9.09022 622.77 9.99021 621.66 9.99021H617.8C616.69 9.99021 615.79 9.09022 615.79 7.98022V6.76022C615.79 6.33022 616.14 5.97021 616.58 5.97021Z" fill="#241128" stroke="#FCF7EF" stroke-width="0.5" stroke-miterlimit="10"/>
<path d="M621.66 4.16016H617.8C616.69 4.16016 615.79 5.06006 615.79 6.17016C615.79 7.28025 616.69 8.18016 617.8 8.18016H621.66C622.77 8.18016 623.67 7.28025 623.67 6.17016C623.67 5.06006 622.77 4.16016 621.66 4.16016Z" fill="#241128" stroke="#FCF7EF" stroke-width="0.5" stroke-miterlimit="10"/>
<path d="M645.81 22.0498H652.11C652.54 22.0498 652.9 22.3998 652.9 22.8398V24.0598C652.9 25.1698 652 26.0698 650.89 26.0698H647.03C645.92 26.0698 645.02 25.1698 645.02 24.0598V22.8398C645.02 22.4098 645.37 22.0498 645.81 22.0498Z" fill="#241128" stroke="#FCF7EF" stroke-width="0.5" stroke-miterlimit="10"/>
<path d="M650.89 20.23H647.03C645.92 20.23 645.02 21.1299 645.02 22.24C645.02 23.3501 645.92 24.25 647.03 24.25H650.89C652 24.25 652.9 23.3501 652.9 22.24C652.9 21.1299 652 20.23 650.89 20.23Z" fill="#241128" stroke="#FCF7EF" stroke-width="0.5" stroke-miterlimit="10"/>
<path d="M777.57 30.8901H783.87C784.3 30.8901 784.66 31.2401 784.66 31.6801V32.9001C784.66 34.0101 783.76 34.9101 782.65 34.9101H778.79C777.68 34.9101 776.78 34.0101 776.78 32.9001V31.6801C776.78 31.2501 777.13 30.8901 777.57 30.8901Z" fill="#241128" stroke="#FCF7EF" stroke-width="0.5" stroke-miterlimit="10"/>
<path d="M782.66 29.0801H778.8C777.69 29.0801 776.79 29.98 776.79 31.0901C776.79 32.2002 777.69 33.1001 778.8 33.1001H782.66C783.77 33.1001 784.67 32.2002 784.67 31.0901C784.67 29.98 783.77 29.0801 782.66 29.0801Z" fill="#241128" stroke="#FCF7EF" stroke-width="0.5" stroke-miterlimit="10"/>
<path d="M42.9199 22.9399H49.2199C49.6499 22.9399 50.0099 23.2899 50.0099 23.7299V24.9499C50.0099 26.0599 49.1099 26.9599 47.9999 26.9599H44.1399C43.0299 26.9599 42.1299 26.0599 42.1299 24.9499V23.7299C42.1299 23.2999 42.4799 22.9399 42.9199 22.9399Z" fill="#241128" stroke="#FCF7EF" stroke-width="0.5" stroke-miterlimit="10"/>
<path d="M48.0099 21.1201H44.1499C43.0398 21.1201 42.1399 22.02 42.1399 23.1301C42.1399 24.2402 43.0398 25.1401 44.1499 25.1401H48.0099C49.12 25.1401 50.0199 24.2402 50.0199 23.1301C50.0199 22.02 49.12 21.1201 48.0099 21.1201Z" fill="#241128" stroke="#FCF7EF" stroke-width="0.5" stroke-miterlimit="10"/>
<path d="M546.99 12.79H559.84C560.73 12.79 561.45 13.51 561.45 14.4V16.89C561.45 19.15 559.62 20.98 557.36 20.98H549.48C547.22 20.98 545.39 19.15 545.39 16.89V14.4C545.39 13.51 546.11 12.79 547 12.79H546.99Z" fill="#241128" stroke="#CAF4CB" stroke-width="0.5" stroke-miterlimit="10"/>
<path d="M557.36 10.1099H549.47C547.211 10.1099 545.38 11.941 545.38 14.1999V14.2099C545.38 16.4687 547.211 18.2999 549.47 18.2999H557.36C559.619 18.2999 561.45 16.4687 561.45 14.2099V14.1999C561.45 11.941 559.619 10.1099 557.36 10.1099Z" fill="#CAF4CB" stroke="#CAF4CB" stroke-width="0.5" stroke-miterlimit="10"/>
<path d="M550.94 12.4102L549.03 14.6802L551.23 16.3802" stroke="#1C0D1F" stroke-width="0.5" stroke-miterlimit="10"/>
<path d="M556.19 12.4102L558.11 14.6802L555.91 16.3802" stroke="#1C0D1F" stroke-width="0.5" stroke-miterlimit="10"/>
<path d="M554.28 12.0601L552.86 16.5201" stroke="#1C0D1F" stroke-width="0.5" stroke-miterlimit="10"/>
<path d="M714.53 20.4102H727.38C728.27 20.4102 728.99 21.1302 728.99 22.0202V24.5102C728.99 26.7702 727.16 28.6002 724.9 28.6002H717.02C714.76 28.6002 712.93 26.7702 712.93 24.5102V22.0202C712.93 21.1302 713.65 20.4102 714.54 20.4102H714.53Z" fill="#241128" stroke="#9AD7FF" stroke-width="0.5" stroke-miterlimit="10"/>
<path d="M724.9 17.73H717.01C714.751 17.73 712.92 19.5611 712.92 21.82V21.83C712.92 24.0888 714.751 25.92 717.01 25.92H724.9C727.159 25.92 728.99 24.0888 728.99 21.83V21.82C728.99 19.5611 727.159 17.73 724.9 17.73Z" fill="#9AD7FF" stroke="#9AD7FF" stroke-width="0.5" stroke-miterlimit="10"/>
<path d="M718.48 20.02L716.57 22.29L718.76 24" stroke="#1C0D1F" stroke-width="0.5" stroke-miterlimit="10"/>
<path d="M723.73 20.02L725.64 22.29L723.44 24" stroke="#1C0D1F" stroke-width="0.5" stroke-miterlimit="10"/>
<path d="M721.81 19.6699L720.4 24.1399" stroke="#1C0D1F" stroke-width="0.5" stroke-miterlimit="10"/>
<path d="M162.68 20.9102H167.41" stroke="white" stroke-width="0.5" stroke-miterlimit="10"/>
<path d="M159.57 27.2603H166.79" stroke="white" stroke-width="0.5" stroke-miterlimit="10"/>
<path d="M538.67 12.8398H543.4" stroke="white" stroke-width="0.5" stroke-miterlimit="10"/>
<path d="M535.56 19.1899H542.78" stroke="white" stroke-width="0.5" stroke-miterlimit="10"/>
<path d="M706.55 20.6602H711.29" stroke="white" stroke-width="0.5" stroke-miterlimit="10"/>
<path d="M703.44 27.0103H710.66" stroke="white" stroke-width="0.5" stroke-miterlimit="10"/>
<path d="M303.01 4.4502H315.86C316.75 4.4502 317.47 5.1702 317.47 6.0602V8.5502C317.47 10.8102 315.64 12.6402 313.38 12.6402H305.5C303.24 12.6402 301.41 10.8102 301.41 8.5502V6.0602C301.41 5.1702 302.13 4.4502 303.02 4.4502H303.01Z" fill="#241128" stroke="#9AD7FF" stroke-width="0.5" stroke-miterlimit="10"/>
<path d="M313.38 1.77002H305.49C303.231 1.77002 301.4 3.60118 301.4 5.86002V5.87002C301.4 8.12886 303.231 9.96002 305.49 9.96002H313.38C315.639 9.96002 317.47 8.12886 317.47 5.87002V5.86002C317.47 3.60118 315.639 1.77002 313.38 1.77002Z" fill="#9AD7FF" stroke="#9AD7FF" stroke-width="0.5" stroke-miterlimit="10"/>
<path d="M306.96 4.06982L305.05 6.33982L307.25 8.03982" stroke="#1C0D1F" stroke-width="0.5" stroke-miterlimit="10"/>
<path d="M312.21 4.06982L314.12 6.33982L311.93 8.03982" stroke="#1C0D1F" stroke-width="0.5" stroke-miterlimit="10"/>
<path d="M310.3 3.70996L308.88 8.17996" stroke="#1C0D1F" stroke-width="0.5" stroke-miterlimit="10"/>
<path d="M295.03 4.7002H299.77" stroke="white" stroke-width="0.5" stroke-miterlimit="10"/>
<path d="M291.92 11.0498H299.14" stroke="white" stroke-width="0.5" stroke-miterlimit="10"/>
</g>
<defs>
<clipPath id="clip0_2403_1023">
<rect width="816" height="40" fill="white"/>
</clipPath>
</defs>
</svg>
