<svg xmlns="http://www.w3.org/2000/svg" width="16" height="16" viewBox="0 0 16 16">
  <g fill="#57606a" fill-rule="evenodd">
    <animate attributeName="opacity" values="1;0.5;1" dur="1.2s" calcMode="spline" keySplines="0.4 0 0.6 1; 0.4 0 0.6 1" repeatCount="indefinite"/>
    <path transform="translate(2, 2.5)" d="m4.808594 3.589844-.65625 2.1875h1.171875l.660156-2.1875zm0 0"/>
    <path transform="translate(2, 2.5)" d="m4.707031.113281c-1.890625-.359375-3.039062.21875-3.757812 1.402344-.59375.972656-.949219 2.496094-.949219 4.003906 0 .976563.148438 1.960938.414062 2.792969h4.140626l.304687-.992188h-1.867187c-.226563 0-.402344-.082031-.519532-.253906h-.003906c-.113281-.171875-.132812-.359375-.078125-.570312l.15625-.527344.972656-3.222656c.054688-.191406.167969-.351563.335938-.484375.171875-.140625.363281-.214844.570312-.214844h2.71875c.230469 0 .410157.085937.519531.265625.113282.175781.136719.371094.074219.585938-.144531.480468-.289062.960937-.441406 1.4375-.125.421874-.253906.847656-.382813 1.273437l2.628907-1.085937c.046875-.023438.097656-.035157.148437-.023438.054688.007812.097656.039062.132813.074219.074219.074219.09375.164062.0625.261719l-.308594 1.019531c-.011719.078125-.066406.136719-.144531.164062l-3.011719 1.234375s-.207031.683594-.277344.933594c-.09375.316406-.1875.632812-.285156.953125-.003906.003906-.007813.015625-.011719.03125-.003906.007813-.019531.046875-.019531.046875-.066406.175781-.1875.320312-.355469.4375-.164062.125-.34375.191406-.535156.191406h-3.753906c.796875.953125 2.222656 1.363282 3.539062.984375 3.222656-.921875 7.222656-2.980469 7.222656-5.3125 0-2.328125-4.082031-4.800781-7.238281-5.40625zm0 0"/>
  </g>
</svg>
