<svg xmlns="http://www.w3.org/2000/svg" width="16" height="16" viewBox="0 0 16 16"><g><animateTransform attributeName="transform" calcMode="spline" dur="3.2s" keySplines="0.2 0 0.2 1; 0.2 0 0.2 1; 0.2 0 0.2 1; 0.25 0 0.6 1; 0 0 1 1" keyTimes="0;0.12;0.28;0.46;0.58;1" repeatCount="indefinite" type="translate" values="0 0; 0.8 -0.5; -0.7 0.7; 0.5 0.4; 0 0; 0 0"/><g fill="#e6edf3" fill-rule="evenodd"><animateTransform attributeName="transform" calcMode="spline" dur="3.2s" keySplines="0.08 0 0.22 1; 0 0 1 1" keyTimes="0;0.60;1" repeatCount="indefinite" type="rotate" values="0 8 8; 1440 8 8; 1440 8 8"/><path d="m6.809 6.09-.657 2.187h1.172l.66-2.187zm0 0"/><path d="M6.707 2.613c-1.89-.36-3.039.219-3.758 1.403C2.355 4.988 2 6.512 2 8.02a9.4 9.4 0 0 0 .414 2.793h4.14l.305-.993H4.992c-.226 0-.402-.082-.52-.254H4.47a.68.68 0 0 1-.078-.57l.156-.527.973-3.223a.94.94 0 0 1 .335-.484.9.9 0 0 1 .57-.215h2.72c.23 0 .41.086.52.265a.68.68 0 0 1 .073.586q-.214.721-.441 1.438-.189.634-.383 1.273l2.629-1.086c.047-.023.098-.035.148-.023.055.008.098.04.133.074a.24.24 0 0 1 .063.262l-.309 1.02a.21.21 0 0 1-.144.164L8.422 9.754s-.207.683-.277.933q-.14.474-.286.954a.1.1 0 0 0-.011.03l-.02.048a.94.94 0 0 1-.355.437.87.87 0 0 1-.535.192H3.184c.796.953 2.222 1.363 3.539.984 3.222-.922 7.222-2.98 7.222-5.312 0-2.329-4.082-4.801-7.238-5.407m0 0"/></g></g></svg>