<svg fill="#fff" height="30" viewBox="0 0 30 30" width="30" xmlns="http://www.w3.org/2000/svg"><path d="m11.5 3c-1.381 0-2.5 1.119-2.5 2.5s1.119 2.5 2.5 2.5h2.5v-2.5c0-1.381-1.119-2.5-2.5-2.5zm6 0c-1.381 0-2.5 1.119-2.5 2.5v6c0 1.381 1.119 2.5 2.5 2.5s2.5-1.119 2.5-2.5v-6c0-1.381-1.119-2.5-2.5-2.5zm-12 6c-1.381 0-2.5 1.119-2.5 2.5s1.119 2.5 2.5 2.5h6c1.381 0 2.5-1.119 2.5-2.5s-1.119-2.5-2.5-2.5zm18 0c-1.381 0-2.5 1.119-2.5 2.5v2.5h2.5c1.381 0 2.5-1.119 2.5-2.5s-1.119-2.5-2.5-2.5zm-18 6c-1.381 0-2.5 1.119-2.5 2.5s1.119 2.5 2.5 2.5 2.5-1.119 2.5-2.5v-2.5zm6 0c-1.381 0-2.5 1.119-2.5 2.5v6c0 1.381 1.119 2.5 2.5 2.5s2.5-1.119 2.5-2.5v-6c0-1.381-1.119-2.5-2.5-2.5zm6 0c-1.381 0-2.5 1.119-2.5 2.5s1.119 2.5 2.5 2.5h6c1.381 0 2.5-1.119 2.5-2.5s-1.119-2.5-2.5-2.5zm-2.5 6v2.5c0 1.381 1.119 2.5 2.5 2.5s2.5-1.119 2.5-2.5-1.119-2.5-2.5-2.5z"/></svg>